<svg width="96" height="138" viewBox="0 0 96 138" fill="none" xmlns="http://www.w3.org/2000/svg">
<g clip-path="url(#clip0)">
<path d="M34.1427 114.615C33.5664 115.227 33.2456 116.035 33.2456 116.875C33.2456 117.715 33.5664 118.523 34.1427 119.135L35.5802 120.655C37.9327 123.141 37.9327 127.185 35.5802 129.672C35.0634 130.238 34.4333 130.691 33.7306 131.001C33.0279 131.311 32.2679 131.471 31.4995 131.471C30.731 131.471 29.9711 131.311 29.2683 131.001C28.5656 130.691 27.9356 130.238 27.4187 129.672L25.9811 128.153C25.8766 128.044 25.7649 127.942 25.6465 127.848L15.8063 117.444L33.5208 98.7206L28.7213 94.3586L9.01538 115.184C8.43938 115.796 8.11884 116.604 8.11884 117.444C8.11884 118.283 8.43938 119.091 9.01538 119.703L21.3096 132.698C21.4145 132.808 21.5267 132.911 21.6454 133.006L22.7703 134.192C25.0939 136.648 28.1929 138.001 31.4983 138.001C34.8038 138.001 37.9039 136.649 40.2275 134.192C44.7017 129.464 44.9255 121.917 40.899 116.906L46.7162 110.716L41.942 106.375L34.1427 114.615Z" fill="white"/>
<path d="M47.2272 61.87C36.9047 61.87 28.5066 53.36 28.5066 42.895C28.5066 32.43 36.9047 23.92 47.2272 23.92C57.5497 23.92 65.9466 32.43 65.9466 42.895C65.9466 53.36 57.5497 61.87 47.2272 61.87ZM47.2272 30.5981C40.5355 30.5981 35.0956 36.1181 35.0956 42.895C35.0956 49.672 40.5378 55.1908 47.2272 55.1908C53.9166 55.1908 59.3576 49.68 59.3576 42.895C59.3576 36.11 53.9166 30.5992 47.2272 30.5992V30.5981Z" fill="white"/>
<path d="M91.3347 102.359C86.6701 97.8247 79.2262 97.5959 74.2824 101.678L66.0113 93.6364L61.3432 97.9397L72.2357 108.529C72.8305 109.112 73.6312 109.438 74.4653 109.438C75.2993 109.438 76.1 109.112 76.6949 108.529L78.1947 107.072C79.3892 105.924 80.9835 105.283 82.6424 105.283C84.3013 105.283 85.8956 105.924 87.0901 107.072C87.6511 107.606 88.0977 108.248 88.4028 108.959C88.7079 109.67 88.8652 110.435 88.8652 111.208C88.8652 111.982 88.7079 112.747 88.4028 113.458C88.0977 114.169 87.6511 114.811 87.0901 115.345L85.5902 116.803C85.4818 116.911 85.3812 117.026 85.2891 117.148L75.0277 127.126L51.6241 104.366C51.7522 104.267 51.9068 104.143 52.0452 104.035C47.2826 99.2576 43.4822 95.45 42.8038 94.8025C30.1495 82.5907 7.9435 62.6382 7.9435 47.38C7.9435 25.5783 25.4423 7.8407 46.9503 7.8407C68.4583 7.8407 85.9537 25.5737 85.9537 47.38C85.9537 59.6712 72.1088 75.6458 59.6599 87.262C57.2624 89.4976 54.9296 91.5526 52.7479 93.4076C51.0172 94.8612 49.402 96.1676 47.9541 97.3049L53.4539 102.88C54.6008 101.97 57.537 99.5566 57.537 99.5566C58.2904 98.9195 59.9887 97.3532 60.0637 97.2842L65.1679 92.575C77.8959 80.6587 93.4749 62.9119 93.4749 47.38C93.4749 21.252 72.508 0 46.738 0C20.9681 0 0 21.252 0 47.38C0 69.8383 33.3177 96.0181 41.9765 104.305C42.5038 104.81 72.5841 134.008 72.5841 134.008C73.1793 134.591 73.9798 134.917 74.8137 134.917C75.6476 134.917 76.4482 134.591 77.0433 134.008L89.8602 121.546C89.9691 121.438 90.0704 121.322 90.1637 121.201L91.3347 120.06C92.5236 118.911 93.4689 117.536 94.1145 116.016C94.76 114.496 95.0927 112.862 95.0927 111.211C95.0927 109.561 94.76 107.927 94.1145 106.407C93.4689 104.887 92.5236 103.512 91.3347 102.363V102.359Z" fill="white"/>
<path d="M51.6241 104.366L75.0266 127.12C75.0266 127.12 61.5924 113.611 52.0452 104.035C51.9068 104.143 51.7521 104.267 51.6241 104.366Z" fill="white"/>
</g>
<defs>
<clipPath id="clip0">
<rect width="95.0924" height="138" fill="white"/>
</clipPath>
</defs>
</svg>
