<svg width="193" height="47" viewBox="0 0 193 47" fill="none" xmlns="http://www.w3.org/2000/svg">
<path d="M51.1868 38.1182C48.3963 38.1182 46.7961 36.4288 46.7961 33.4831V19.8287H52.9254C53.1468 19.8287 53.3591 19.7413 53.5157 19.5857C53.6722 19.4301 53.7601 19.2192 53.7601 18.9992V18.1201C53.7597 17.9295 53.6833 17.7468 53.5477 17.612C53.4121 17.4772 53.2282 17.4013 53.0364 17.4008H46.8025V12.1264H43.5858V33.6637C43.5858 38.1613 46.1109 40.6387 50.6947 40.6387C51.9095 40.649 53.1135 40.4124 54.233 39.9434C54.5238 39.8178 54.7525 39.5827 54.8692 39.2897C54.9859 38.9967 54.9809 38.6697 54.8554 38.3803L54.8152 38.286C54.7023 38.0345 54.4964 37.8358 54.2401 37.731C53.9838 37.6263 53.6968 37.6236 53.4385 37.7234C52.7177 37.9875 51.9551 38.1212 51.1868 38.1182Z" fill="#1FB0E3"/>
<path d="M62.6848 20.6886L61.7777 21.8809V17.4056H58.7379V40.3654H61.9546V28.9295C61.9546 23.8021 64.663 20.6182 69.2532 20.233C69.361 20.2234 69.5652 20.2139 69.7823 20.2059C70.0061 20.1972 70.2178 20.1028 70.373 19.9425C70.5283 19.7823 70.6152 19.5685 70.6155 19.346V18.1201C70.6149 17.9975 70.589 17.8765 70.5394 17.7643C70.4897 17.6522 70.4174 17.5514 70.3269 17.4682C70.2364 17.385 70.1296 17.3212 70.0133 17.2807C69.8969 17.2402 69.7734 17.224 69.6505 17.233C66.6525 17.444 65.0249 18.192 63.0788 20.2186C62.9389 20.368 62.8074 20.5249 62.6848 20.6886Z" fill="#1FB0E3"/>
<path d="M115.655 18.0609L107.035 37.6387L98.6455 18.1712C98.5461 17.9431 98.382 17.7488 98.1732 17.612C97.9644 17.4752 97.72 17.4018 97.4698 17.4008H96.6351C96.4597 17.4013 96.2872 17.4451 96.133 17.5283C95.9789 17.6116 95.8481 17.7317 95.7524 17.8777C95.6566 18.0238 95.599 18.1912 95.5846 18.365C95.5702 18.5387 95.5996 18.7132 95.6701 18.8729L104.741 39.4655C104.859 39.733 105.053 39.9606 105.299 40.1204C105.545 40.2802 105.832 40.3654 106.126 40.3654H107.908C108.191 40.3661 108.468 40.2844 108.704 40.1305C108.941 39.9765 109.127 39.757 109.24 39.4991L118.5 18.4749C118.552 18.3583 118.574 18.2307 118.563 18.1037C118.553 17.9767 118.51 17.8544 118.44 17.7477C118.37 17.641 118.274 17.5534 118.162 17.4929C118.049 17.4323 117.923 17.4007 117.794 17.4008H116.678C116.462 17.4 116.249 17.462 116.068 17.5792C115.886 17.6965 115.743 17.8639 115.655 18.0609Z" fill="#1FB0E3"/>
<path d="M130.085 17.1739C123.364 17.1739 118.486 22.0983 118.486 28.8831C118.486 35.8038 123.615 40.6387 130.957 40.6387C134.656 40.6387 137.662 39.4847 139.711 37.2966L138.072 35.3563C136.252 37.0984 133.907 37.9823 131.094 37.9823C126.772 37.9823 123.534 35.9349 122.203 32.3642L121.963 31.7249L141.438 27.9561C141.096 21.5772 136.491 17.1739 130.085 17.1739ZM138.399 26.6582L121.571 29.8149V28.6561C121.571 23.3817 125.072 19.6928 130.085 19.6928C134.183 19.6928 137.393 22.1958 138.265 26.0685L138.399 26.6582Z" fill="#1FB0E3"/>
<path d="M153.178 38.1182C150.376 38.1182 148.835 36.4719 148.835 33.4831V7.75021H145.618V33.8459C145.618 38.2253 148.031 40.6387 152.407 40.6387C153.27 40.6381 154.127 40.5121 154.953 40.2647L154.802 37.888C154.273 38.0369 153.727 38.1144 153.178 38.1182Z" fill="#1FB0E3"/>
<path d="M167.918 27.1458H156.769V29.7558H167.918V27.1458Z" fill="#1FB0E3"/>
<path d="M181.676 37.8912C177.071 37.8912 174.535 35.1613 174.535 30.2033V17.4008H171.318V30.7036C171.318 37.1096 174.818 40.6387 181.176 40.6387C184.448 40.6387 187.287 39.3009 188.944 36.9626L190.012 35.465V40.359H193V17.4008H189.783V29.2923C189.783 34.6834 186.748 37.8912 181.676 37.8912Z" fill="#1FB0E3"/>
<path d="M91.4723 20.6534C90.4126 19.6035 89.1609 18.7642 87.7844 18.1808C86.3577 17.589 84.8271 17.2843 83.2811 17.2843C81.7351 17.2843 80.2045 17.589 78.7778 18.1808C75.9975 19.3541 73.784 21.5538 72.6034 24.3168C72.0057 25.7357 71.6979 27.2586 71.6979 28.7968C71.6979 30.3351 72.0057 31.858 72.6034 33.2769C73.7827 36.0407 75.9967 38.2408 78.7778 39.4128C80.2042 40.0057 81.735 40.311 83.2811 40.311C84.8273 40.311 86.358 40.0057 87.7844 39.4128C89.1526 38.8356 90.3973 38.004 91.4514 36.9626L92.2363 36.1842V37.8689C92.2361 38.0556 92.2729 38.2405 92.3447 38.4131C92.4164 38.5857 92.5217 38.7425 92.6545 38.8746C92.7873 39.0067 92.945 39.1115 93.1186 39.183C93.2922 39.2545 93.4782 39.2913 93.6661 39.2913C93.9839 39.2913 94.2887 39.1659 94.5134 38.9426C94.7381 38.7193 94.8643 38.4164 94.8643 38.1006V28.7968C94.8728 27.2593 94.5646 25.7363 93.9588 24.3215C93.3734 22.9522 92.5294 21.707 91.4723 20.6534ZM91.5367 32.2508C90.6287 34.3961 88.911 36.1026 86.7519 37.0042C85.6516 37.463 84.4703 37.6994 83.2771 37.6994C82.0838 37.6994 80.9026 37.463 79.8023 37.0042C77.6432 36.1031 75.9258 34.3964 75.0191 32.2508C74.5573 31.1574 74.3195 29.9834 74.3195 28.7976C74.3195 27.6118 74.5573 26.4379 75.0191 25.3445C75.9264 23.1988 77.6435 21.4918 79.8023 20.5895C80.9026 20.1306 82.0838 19.8943 83.2771 19.8943C84.4703 19.8943 85.6516 20.1306 86.7519 20.5895C88.9107 21.4923 90.6282 23.1991 91.5367 25.3445C91.9984 26.4379 92.2363 27.6118 92.2363 28.7976C92.2363 29.9834 91.9984 31.1574 91.5367 32.2508Z" fill="#1FB0E3"/>
<path d="M11.6588 39.0196C11.4606 39.2275 11.3501 39.5029 11.3501 39.7892C11.3501 40.0755 11.4606 40.351 11.6588 40.5588L12.1493 41.0767C12.5372 41.4946 12.7526 42.0424 12.7526 42.611C12.7526 43.1797 12.5372 43.7274 12.1493 44.1454C11.9727 44.3382 11.7575 44.4922 11.5175 44.5975C11.2775 44.7029 11.018 44.7573 10.7557 44.7573C10.4933 44.7573 10.2339 44.7029 9.99389 44.5975C9.75392 44.4922 9.53872 44.3382 9.36206 44.1454L8.87152 43.634C8.83622 43.5964 8.79804 43.5617 8.75733 43.5301L5.39591 39.9882L11.4465 33.6141L9.81079 32.1261L3.0783 39.213C2.88012 39.4208 2.76965 39.6963 2.76965 39.9826C2.76965 40.2689 2.88012 40.5444 3.0783 40.7522L7.27606 45.1763C7.3127 45.213 7.35136 45.2477 7.39185 45.2802L7.77625 45.6846C8.15627 46.0927 8.61696 46.4185 9.12949 46.6415C9.64202 46.8645 10.1954 46.9801 10.7549 46.9808C11.3147 46.9803 11.8683 46.8649 12.3811 46.6418C12.894 46.4188 13.3549 46.0929 13.7351 45.6846C14.4704 44.8903 14.8974 43.862 14.9399 42.7836C14.9823 41.7052 14.6374 40.6469 13.9667 39.798L15.953 37.6914L14.3222 36.213L11.6588 39.0196Z" fill="#1FB0E3"/>
<path d="M16.1268 21.0642C12.6013 21.0642 9.73364 18.1664 9.73364 14.6038C9.73364 11.0411 12.6013 8.1514 16.1268 8.1514C19.6522 8.1514 22.5167 11.0411 22.5167 14.6038C22.5167 18.1664 19.6506 21.0642 16.1268 21.0642ZM16.1268 10.4178C15.2907 10.4032 14.4691 10.6363 13.7668 11.0873C13.0644 11.5383 12.513 12.1868 12.1828 12.9503C11.8526 13.7138 11.7586 14.5576 11.9127 15.3744C12.0668 16.1912 12.462 16.9439 13.048 17.5367C13.6341 18.1295 14.3844 18.5356 15.2034 18.7031C16.0225 18.8707 16.8732 18.7922 17.6472 18.4777C18.4212 18.1631 19.0835 17.6267 19.5497 16.9369C20.0159 16.247 20.2649 15.4348 20.265 14.6038C20.2732 13.5038 19.8421 12.4455 19.0664 11.6609C18.2907 10.8762 17.2336 10.4292 16.1268 10.4178Z" fill="#1FB0E3"/>
<path d="M31.1888 34.8432C30.4149 34.1028 29.3946 33.6702 28.3212 33.6275C27.2478 33.5848 26.196 33.9349 25.365 34.6115L22.5408 31.8736L20.9469 33.3376L24.667 36.9434C24.87 37.1416 25.1432 37.2526 25.4277 37.2526C25.7123 37.2526 25.9855 37.1416 26.1885 36.9434L26.6999 36.4479C27.1079 36.0572 27.6524 35.8388 28.219 35.8388C28.7856 35.8388 29.3301 36.0572 29.7381 36.4479C29.9297 36.6297 30.0822 36.8482 30.1864 37.0903C30.2906 37.3323 30.3443 37.5928 30.3443 37.8561C30.3443 38.1193 30.2906 38.3798 30.1864 38.6218C30.0822 38.8639 29.9297 39.0824 29.7381 39.2642L29.2266 39.7596C29.1894 39.7958 29.1549 39.8349 29.1237 39.8763L25.6191 43.2727L17.6273 35.5305L17.7721 35.4186C16.1461 33.7915 14.8481 32.4969 14.6165 32.2747C10.2949 28.1191 2.71487 21.3247 2.71487 16.1318C2.71487 8.70921 8.69143 2.67078 16.0351 2.67078C23.3787 2.67078 29.3553 8.70921 29.3553 16.1318C29.3553 20.3162 24.6284 25.7552 20.376 29.7174C19.5573 30.4782 18.7676 31.1783 18.0165 31.8096C17.4263 32.3035 16.8746 32.7494 16.3793 33.1362L18.2578 35.0334C18.6502 34.7234 19.6522 33.9018 19.6522 33.9018C19.9096 33.6861 20.4886 33.1522 20.5143 33.1282L22.2577 31.5299C26.6002 27.4734 31.9238 21.4318 31.9238 16.143C31.919 7.23556 24.7587 0 15.9595 0C7.1603 0 0 7.23557 0 16.1286C0 23.7749 11.3773 32.6871 14.3335 35.5081C14.5136 35.6791 24.7876 45.6191 24.7876 45.6191C24.9907 45.8177 25.2642 45.929 25.5492 45.929C25.8341 45.929 26.1076 45.8177 26.3107 45.6191L30.687 41.3771C30.7248 41.341 30.7597 41.3019 30.7915 41.2605L31.192 40.8737C31.5975 40.4822 31.9199 40.0138 32.14 39.4963C32.3602 38.9788 32.4736 38.4227 32.4736 37.8608C32.4736 37.299 32.3602 36.7429 32.14 36.2254C31.9199 35.7079 31.5975 35.2395 31.192 34.848L31.1888 34.8432Z" fill="#1FB0E3"/>
<path d="M17.6273 35.5305L25.6191 43.2775C25.6191 43.2775 21.0322 38.6792 17.7721 35.4186L17.6273 35.5305Z" fill="#1FB0E3"/>
</svg>
