<svg width="262" height="64" viewBox="0 0 262 64" fill="none" xmlns="http://www.w3.org/2000/svg">
<path d="M69.4868 51.9056C65.6987 51.9056 63.5263 49.6051 63.5263 45.594V27.0008H71.8469C72.1475 27.0008 72.4357 26.8818 72.6482 26.6699C72.8607 26.4581 72.9801 26.1708 72.9801 25.8712V24.6742C72.9795 24.4146 72.8758 24.1658 72.6917 23.9823C72.5076 23.7987 72.258 23.6954 71.9976 23.6948H63.535V16.5126H59.1683V45.8399C59.1683 51.9644 62.5962 55.3378 68.8187 55.3378C70.4678 55.3518 72.1023 55.0296 73.622 54.3911C74.0167 54.22 74.3273 53.8998 74.4856 53.5008C74.644 53.1019 74.6373 52.6566 74.467 52.2626L74.4124 52.1341C74.2591 51.7917 73.9795 51.5211 73.6316 51.3785C73.2837 51.2359 72.894 51.2321 72.5434 51.368C71.5649 51.7277 70.5297 51.9098 69.4868 51.9056Z" fill="white"/>
<path d="M85.0954 28.1716L83.864 29.7952V23.7012H79.7375V54.9656H84.1042V39.3933C84.1042 32.4113 87.7809 28.0758 94.0121 27.5513C94.1584 27.5383 94.4357 27.5252 94.7305 27.5143C95.0342 27.5025 95.3215 27.374 95.5324 27.1558C95.7432 26.9375 95.8611 26.6464 95.8614 26.3434V24.6741C95.8607 24.5073 95.8255 24.3424 95.7581 24.1897C95.6908 24.0369 95.5926 23.8997 95.4697 23.7864C95.3469 23.6731 95.2019 23.5862 95.044 23.5311C94.886 23.476 94.7183 23.4539 94.5514 23.4662C90.4817 23.7535 88.2722 24.772 85.6303 27.5317C85.4404 27.7351 85.2618 27.9487 85.0954 28.1716Z" fill="white"/>
<path d="M157.003 24.5936L145.301 51.2526L133.913 24.7438C133.778 24.4332 133.555 24.1686 133.271 23.9822C132.988 23.7959 132.656 23.696 132.317 23.6947H131.183C130.945 23.6953 130.711 23.755 130.502 23.8683C130.293 23.9817 130.115 24.1452 129.985 24.3441C129.855 24.543 129.777 24.771 129.757 25.0076C129.738 25.2441 129.778 25.4818 129.873 25.6992L142.187 53.7403C142.347 54.1045 142.61 54.4144 142.944 54.632C143.278 54.8497 143.668 54.9656 144.067 54.9656H146.486C146.87 54.9666 147.246 54.8554 147.568 54.6457C147.889 54.4361 148.141 54.1372 148.294 53.786L160.866 25.1573C160.936 24.9985 160.965 24.8248 160.951 24.6518C160.937 24.4789 160.879 24.3123 160.784 24.1671C160.689 24.0218 160.559 23.9025 160.406 23.8201C160.253 23.7376 160.081 23.6945 159.907 23.6947H158.392C158.098 23.6936 157.81 23.778 157.563 23.9377C157.317 24.0973 157.122 24.3253 157.003 24.5936Z" fill="white"/>
<path d="M176.592 23.3857C167.468 23.3857 160.846 30.0913 160.846 39.3302C160.846 48.7542 167.809 55.3379 177.776 55.3379C182.797 55.3379 186.878 53.7665 189.66 50.787L187.435 48.1448C184.963 50.5171 181.78 51.7206 177.961 51.7206C172.095 51.7206 167.7 48.9326 165.892 44.0705L165.567 43.1999L192.005 38.0679C191.539 29.3818 185.289 23.3857 176.592 23.3857ZM187.878 36.3007L165.034 40.5991V39.0212C165.034 31.839 169.787 26.8158 176.592 26.8158C182.155 26.8158 186.513 30.2241 187.697 35.4976L187.878 36.3007Z" fill="white"/>
<path d="M207.941 51.9056C204.137 51.9056 202.046 49.6639 202.046 45.5939V10.5535H197.679V46.088C197.679 52.0514 200.954 55.3378 206.895 55.3378C208.066 55.3369 209.23 55.1653 210.351 54.8285L210.146 51.5922C209.428 51.795 208.687 51.9004 207.941 51.9056Z" fill="white"/>
<path d="M227.951 36.9645H212.816V40.5186H227.951V36.9645Z" fill="white"/>
<path d="M246.627 51.5965C240.376 51.5965 236.933 47.8792 236.933 41.1279V23.6947H232.566V41.8091C232.566 50.5322 237.317 55.3378 245.948 55.3378C250.391 55.3378 254.245 53.5161 256.494 50.332L257.943 48.2927V54.9569H262V23.6947H257.633V39.8873C257.633 47.2284 253.513 51.5965 246.627 51.5965Z" fill="white"/>
<path d="M124.175 28.1237C122.736 26.694 121.037 25.5512 119.169 24.7568C117.232 23.9509 115.154 23.536 113.055 23.536C110.956 23.536 108.879 23.9509 106.942 24.7568C103.168 26.3544 100.163 29.3498 98.56 33.1121C97.7486 35.0443 97.3308 37.118 97.3308 39.2126C97.3308 41.3073 97.7486 43.381 98.56 45.3132C100.161 49.0766 103.166 52.0726 106.942 53.6685C108.878 54.4757 110.956 54.8914 113.055 54.8914C115.154 54.8914 117.232 54.4757 119.169 53.6685C121.026 52.8825 122.715 51.75 124.147 50.332L125.212 49.2721V51.566C125.212 51.8203 125.262 52.0721 125.359 52.3071C125.457 52.5421 125.599 52.7557 125.78 52.9356C125.96 53.1155 126.174 53.2582 126.41 53.3556C126.645 53.4529 126.898 53.5031 127.153 53.5031C127.584 53.5031 127.998 53.3322 128.303 53.0281C128.608 52.7241 128.78 52.3117 128.78 51.8816V39.2126C128.791 37.119 128.373 35.0452 127.55 33.1186C126.756 31.254 125.61 29.5584 124.175 28.1237ZM124.262 43.9159C123.03 46.8372 120.698 49.1609 117.767 50.3886C116.273 51.0135 114.67 51.3353 113.05 51.3353C111.43 51.3353 109.826 51.0135 108.333 50.3886C105.402 49.1616 103.07 46.8376 101.839 43.9159C101.213 42.427 100.89 40.8284 100.89 39.2137C100.89 37.599 101.213 36.0005 101.839 34.5116C103.071 31.5898 105.402 29.2654 108.333 28.0367C109.826 27.4118 111.43 27.09 113.05 27.09C114.67 27.09 116.273 27.4118 117.767 28.0367C120.697 29.2661 123.029 31.5902 124.262 34.5116C124.889 36.0005 125.212 37.599 125.212 39.2137C125.212 40.8284 124.889 42.427 124.262 43.9159Z" fill="white"/>
<path d="M15.827 53.1331C15.558 53.4162 15.408 53.7912 15.408 54.1811C15.408 54.571 15.558 54.946 15.827 55.229L16.4929 55.9342C17.0195 56.5034 17.3119 57.2493 17.3119 58.0236C17.3119 58.7979 17.0195 59.5438 16.4929 60.113C16.2531 60.3754 15.961 60.5851 15.6352 60.7286C15.3094 60.8721 14.9572 60.9462 14.6011 60.9462C14.2449 60.9462 13.8927 60.8721 13.5669 60.7286C13.2411 60.5851 12.949 60.3754 12.7092 60.113L12.0433 59.4165C11.9953 59.3654 11.9435 59.3181 11.8883 59.275L7.32509 54.4521L15.5388 45.7725L13.3183 43.7462L4.17891 53.3965C3.90987 53.6795 3.75991 54.0546 3.75991 54.4444C3.75991 54.8343 3.90987 55.2094 4.17891 55.4924L9.87741 61.5167C9.92716 61.5667 9.97964 61.614 10.0346 61.6582L10.5564 62.2088C11.0723 62.7646 11.6977 63.2082 12.3935 63.5119C13.0892 63.8156 13.8404 63.9729 14.6 63.9739C15.3599 63.9732 16.1115 63.816 16.8076 63.5123C17.5038 63.2086 18.1295 62.7648 18.6457 62.2088C19.6438 61.1273 20.2235 59.7271 20.2811 58.2586C20.3387 56.7901 19.8705 55.349 18.9601 54.1931L21.6565 51.3245L19.4426 49.3113L15.827 53.1331Z" fill="white"/>
<path d="M21.8923 28.6831C17.1064 28.6831 13.2135 24.7372 13.2135 19.886C13.2135 15.0347 17.1064 11.0997 21.8923 11.0997C26.6782 11.0997 30.5667 15.0347 30.5667 19.886C30.5667 24.7372 26.676 28.6831 21.8923 28.6831ZM21.8923 14.1859C20.7573 14.166 19.642 14.4834 18.6886 15.0975C17.7351 15.7116 16.9866 16.5947 16.5383 17.6344C16.0901 18.674 15.9624 19.8231 16.1716 20.9354C16.3808 22.0476 16.9173 23.0726 17.7128 23.8798C18.5084 24.687 19.527 25.2399 20.6388 25.4681C21.7507 25.6962 22.9055 25.5894 23.9563 25.161C25.007 24.7327 25.906 24.0023 26.5389 23.0629C27.1718 22.1235 27.5098 21.0176 27.51 19.886C27.5211 18.3882 26.9359 16.9471 25.8829 15.8786C24.8299 14.8101 23.3948 14.2014 21.8923 14.1859Z" fill="white"/>
<path d="M42.3392 47.4461C41.2887 46.4378 39.9036 45.8488 38.4464 45.7906C36.9893 45.7325 35.5614 46.2092 34.4333 47.1305L30.5994 43.4023L28.4357 45.3959L33.4858 50.3059C33.7614 50.5758 34.1322 50.7269 34.5185 50.7269C34.9048 50.7269 35.2756 50.5758 35.5512 50.3059L36.2455 49.6312C36.7993 49.0991 37.5385 48.8018 38.3077 48.8018C39.0768 48.8018 39.816 49.0991 40.3698 49.6312C40.6299 49.8788 40.837 50.1763 40.9784 50.5059C41.1199 50.8354 41.1928 51.1902 41.1928 51.5487C41.1928 51.9071 41.1199 52.2619 40.9784 52.5915C40.837 52.921 40.6299 53.2186 40.3698 53.4661L39.6755 54.1408C39.6249 54.1901 39.5782 54.2432 39.5358 54.2997L34.7783 58.9246L23.9293 48.382L24.1258 48.2296C21.9185 46.014 20.1565 44.2511 19.8421 43.9486C13.9755 38.2899 3.68547 29.0379 3.68547 21.9667C3.68547 11.8594 11.7987 3.63681 21.7678 3.63681C31.7369 3.63681 39.8502 11.8594 39.8502 21.9667C39.8502 27.6646 33.4334 35.0709 27.6606 40.4663C26.5493 41.5023 25.4773 42.4556 24.4577 43.3152C23.6564 43.9878 22.9075 44.595 22.2351 45.1217L24.7852 47.7051C25.3179 47.2829 26.6781 46.1642 26.6781 46.1642C27.0275 45.8704 27.8135 45.1434 27.8484 45.1108L30.2151 42.9344C36.1101 37.4106 43.337 29.1837 43.337 21.9819C43.3304 9.85268 33.6102 0 21.6652 0C9.7202 0 0 9.85268 0 21.9623C0 32.3743 15.4449 44.5101 19.4579 48.3515C19.7024 48.5844 33.6495 62.1196 33.6495 62.1196C33.9252 62.3901 34.2965 62.5417 34.6833 62.5417C35.0702 62.5417 35.4415 62.3901 35.7171 62.1196L41.658 56.3433C41.7093 56.2941 41.7567 56.2409 41.7999 56.1845L42.3436 55.6578C42.8941 55.1247 43.3317 54.4869 43.6305 53.7822C43.9294 53.0775 44.0833 52.3203 44.0833 51.5552C44.0833 50.7901 43.9294 50.0329 43.6305 49.3282C43.3317 48.6235 42.8941 47.9857 42.3436 47.4526L42.3392 47.4461Z" fill="white"/>
<path d="M23.9293 48.382L34.7783 58.9311C34.7783 58.9311 28.5515 52.6695 24.1258 48.2296L23.9293 48.382Z" fill="white"/>
</svg>
